<svg width="16" height="12" viewBox="0 0 16 12" fill="none" xmlns="http://www.w3.org/2000/svg">
<g clip-path="url(#clip0_1660_641)">
<rect width="16" height="12" fill="white"/>
<path fill-rule="evenodd" clip-rule="evenodd" d="M0 0V12H16V0H0Z" fill="#2E42A5"/>
<mask id="mask0_1660_641" style="mask-type:luminance" maskUnits="userSpaceOnUse" x="0" y="0" width="16" height="12">
<path fill-rule="evenodd" clip-rule="evenodd" d="M0 0V12H16V0H0Z" fill="white"/>
</mask>
<g mask="url(#mask0_1660_641)">
<path d="M-1.78149 11.1427L1.73935 12.6317L16.08 1.61893L17.9371 -0.593814L14.1721 -1.09149L8.3229 3.65424L3.6149 6.85176L-1.78149 11.1427Z" fill="white"/>
<path d="M-1.29944 12.186L0.494269 13.0501L17.2703 -0.799406H14.7517L-1.29944 12.186Z" fill="#F50100"/>
<path d="M17.7816 11.1427L14.2608 12.6317L-0.0798473 1.61893L-1.93701 -0.593814L1.82802 -1.09149L7.67722 3.65424L12.3852 6.85176L17.7816 11.1427Z" fill="white"/>
<path d="M17.6615 11.8914L15.8678 12.7555L8.72439 6.82587L6.60652 6.16336L-2.11569 -0.586239H0.40288L9.1202 6.00315L11.4357 6.79757L17.6615 11.8914Z" fill="#F50100"/>
<mask id="path-7-inside-1_1660_641" fill="white">
<path d="M9.88879 4H17.0138V8H9.88879V13H6.11145V8H-0.986206V4H6.11145V-1H9.88879V4Z"/>
</mask>
<path d="M9.88879 4H17.0138V8H9.88879V13H6.11145V8H-0.986206V4H6.11145V-1H9.88879V4Z" fill="#F50100"/>
<path d="M9.88879 4H8.88879V5H9.88879V4ZM17.0138 4H18.0138V3H17.0138V4ZM17.0138 8V9H18.0138V8H17.0138ZM9.88879 8V7H8.88879V8H9.88879ZM9.88879 13V14H10.8888V13H9.88879ZM6.11145 13H5.11145V14H6.11145V13ZM6.11145 8H7.11145V7H6.11145V8ZM-0.986206 8H-1.98621V9H-0.986206V8ZM-0.986206 4V3H-1.98621V4H-0.986206ZM6.11145 4V5H7.11145V4H6.11145ZM6.11145 -1V-2H5.11145V-1H6.11145ZM9.88879 -1H10.8888V-2H9.88879V-1ZM9.88879 4V5H17.0138V4V3H9.88879V4ZM17.0138 4H16.0138V8H17.0138H18.0138V4H17.0138ZM17.0138 8V7H9.88879V8V9H17.0138V8ZM9.88879 8H8.88879V13H9.88879H10.8888V8H9.88879ZM9.88879 13V12H6.11145V13V14H9.88879V13ZM6.11145 13H7.11145V8H6.11145H5.11145V13H6.11145ZM6.11145 8V7H-0.986206V8V9H6.11145V8ZM-0.986206 8H0.0137939V4H-0.986206H-1.98621V8H-0.986206ZM-0.986206 4V5H6.11145V4V3H-0.986206V4ZM6.11145 4H7.11145V-1H6.11145H5.11145V4H6.11145ZM6.11145 -1V0H9.88879V-1V-2H6.11145V-1ZM9.88879 -1H8.88879V4H9.88879H10.8888V-1H9.88879Z" fill="white" mask="url(#path-7-inside-1_1660_641)"/>
</g>
</g>
<defs>
<clipPath id="clip0_1660_641">
<rect width="16" height="12" fill="white"/>
</clipPath>
</defs>
</svg>
