<svg width="362" height="327" viewBox="0 0 362 327" fill="none" xmlns="http://www.w3.org/2000/svg">
<g clip-path="url(#clip0_33_13802)">
<path d="M49.5303 247.194C62.8051 256.439 84.3278 256.439 97.603 247.194C110.877 237.949 110.877 222.961 97.603 213.716C84.3278 204.472 62.8051 204.472 49.5303 213.716C36.2555 222.961 36.2555 237.949 49.5303 247.194Z" fill="#A1F763"/>
<path d="M187.311 121.653C207.224 135.52 239.507 135.52 259.42 121.653C279.331 107.786 279.331 85.3038 259.42 71.437C239.507 57.5701 207.224 57.5701 187.311 71.437C167.399 85.3038 167.399 107.786 187.311 121.653Z" fill="#A1F763"/>
<path d="M114.171 184.424C130.765 195.979 157.668 195.979 174.262 184.424C190.855 172.868 190.855 154.132 174.262 142.576C157.668 131.021 130.765 131.021 114.171 142.576C97.578 154.132 97.578 172.868 114.171 184.424Z" fill="#A1F763"/>
<path d="M7.46707 176.054C17.4231 182.987 33.5652 182.987 43.5213 176.054C53.4773 169.121 53.4773 157.88 43.5213 150.946C33.5652 144.013 17.4231 144.013 7.46707 150.946C-2.48903 157.88 -2.48902 169.121 7.46707 176.054Z" fill="#A1F763"/>
<path d="M114.171 50.5136C130.765 62.0692 157.668 62.0692 174.262 50.5136C190.855 38.9579 190.855 20.2224 174.262 8.66678C157.668 -2.88892 130.765 -2.88893 114.171 8.66678C97.578 20.2224 97.578 38.9579 114.171 50.5136Z" fill="#A1F763"/>
<path d="M49.5303 113.284C62.8051 122.529 84.3278 122.529 97.6029 113.284C110.877 104.039 110.877 89.0507 97.6029 79.8065C84.3278 70.5619 62.8051 70.5619 49.5303 79.8065C36.2555 89.0507 36.2556 104.039 49.5303 113.284Z" fill="#A1F763"/>
<path d="M114.171 318.334C130.765 329.889 157.668 329.889 174.262 318.334C190.855 306.778 190.855 288.042 174.262 276.486C157.668 264.931 130.765 264.931 114.171 276.486C97.578 288.042 97.578 306.778 114.171 318.334Z" fill="#A1F763"/>
<path d="M274.957 188.608C294.87 202.475 327.154 202.475 347.066 188.608C366.978 174.742 366.978 152.259 347.066 138.392C327.154 124.525 294.87 124.525 274.957 138.392C255.046 152.259 255.046 174.742 274.957 188.608Z" fill="#A1F763"/>
<path d="M187.311 255.563C207.224 269.43 239.507 269.43 259.42 255.563C279.331 241.696 279.331 219.214 259.42 205.347C239.507 191.48 207.224 191.48 187.311 205.347C167.399 219.214 167.399 241.696 187.311 255.563Z" fill="#A1F763"/>
</g>
<defs>
<clipPath id="clip0_33_13802">
<rect width="362" height="327" fill="white"/>
</clipPath>
</defs>
</svg>
